<mxfile host="65bd71144e">
    <diagram id="MPeDoWMvLSlkay31p66Y" name="PÃ¡gina-1">
        <mxGraphModel dx="498" dy="513" grid="0" gridSize="10" guides="1" tooltips="1" connect="1" arrows="1" fold="1" page="1" pageScale="1" pageWidth="1169" pageHeight="827" background="#ffffff" math="0" shadow="0">
            <root>
                <mxCell id="0"/>
                <mxCell id="1" parent="0"/>
                <mxCell id="43" value="" style="shape=image;verticalLabelPosition=bottom;labelBackgroundColor=default;verticalAlign=top;aspect=fixed;imageAspect=0;image=https://pbs.twimg.com/profile_images/1269972369940103169/BEBFAgFx_400x400.jpg;" parent="1" vertex="1">
                    <mxGeometry x="428" y="348" width="100" height="100" as="geometry"/>
                </mxCell>
                <mxCell id="2" value="" style="rounded=1;whiteSpace=wrap;html=1;fillColor=#FFCCE6;strokeColor=#b85450;gradientColor=#ea6b66;gradientDirection=east;" parent="1" vertex="1">
                    <mxGeometry x="167" y="278" width="363" height="70" as="geometry"/>
                </mxCell>
                <mxCell id="3" value="" style="rounded=1;whiteSpace=wrap;html=1;fillColor=#00CC66;strokeColor=#00CC66;gradientColor=#CCFFE6;gradientDirection=west;" parent="1" vertex="1">
                    <mxGeometry x="167" y="197" width="363" height="70" as="geometry"/>
                </mxCell>
                <mxCell id="4" value="" style="rounded=1;whiteSpace=wrap;html=1;fillColor=#FFB366;strokeColor=#FFB366;gradientColor=#FFE6CC;gradientDirection=west;" parent="1" vertex="1">
                    <mxGeometry x="167" y="88" width="363" height="100" as="geometry"/>
                </mxCell>
                <mxCell id="6" value="" style="rounded=1;whiteSpace=wrap;html=1;fillColor=#dae8fc;strokeColor=#6c8ebf;gradientColor=#7ea6e0;gradientDirection=south;" parent="1" vertex="1">
                    <mxGeometry x="540" y="103" width="154" height="312" as="geometry"/>
                </mxCell>
                <mxCell id="7" value="&lt;font color=&quot;#000000&quot;&gt;&lt;b&gt;UI Component&lt;/b&gt;&lt;/font&gt;" style="rounded=1;whiteSpace=wrap;html=1;strokeColor=#666666;fillColor=#f5f5f5;gradientDirection=north;gradientColor=#b3b3b3;" parent="1" vertex="1">
                    <mxGeometry x="222" y="103.5" width="134" height="33" as="geometry"/>
                </mxCell>
                <mxCell id="8" value="&lt;font color=&quot;#000000&quot;&gt;UI Process Component&lt;/font&gt;" style="rounded=1;whiteSpace=wrap;html=1;strokeColor=#666666;fillColor=#f5f5f5;gradientDirection=north;gradientColor=#b3b3b3;" parent="1" vertex="1">
                    <mxGeometry x="222" y="142.5" width="135" height="32" as="geometry"/>
                </mxCell>
                <mxCell id="9" value="&lt;font color=&quot;#000000&quot;&gt;Controller UIC&lt;/font&gt;" style="rounded=1;whiteSpace=wrap;html=1;strokeColor=#666666;fillColor=#f5f5f5;gradientDirection=north;gradientColor=#b3b3b3;" parent="1" vertex="1">
                    <mxGeometry x="368" y="101.5" width="72" height="73" as="geometry"/>
                </mxCell>
                <mxCell id="13" value="&lt;span style=&quot;color: rgb(0, 0, 0);&quot;&gt;External Systems&lt;/span&gt;" style="rounded=1;whiteSpace=wrap;html=1;strokeColor=#666666;fillColor=#f5f5f5;gradientDirection=north;gradientColor=#b3b3b3;" parent="1" vertex="1">
                    <mxGeometry x="450" y="101.5" width="72" height="73" as="geometry"/>
                </mxCell>
                <mxCell id="14" value="&lt;b style=&quot;font-size: 13px;&quot;&gt;User &lt;br&gt;Interface&lt;/b&gt;" style="text;html=1;align=center;verticalAlign=middle;resizable=0;points=[];autosize=1;strokeColor=none;fillColor=none;fontColor=#000000;rotation=-90;" parent="1" vertex="1">
                    <mxGeometry x="148" y="121" width="80" height="40" as="geometry"/>
                </mxCell>
                <mxCell id="21" style="edgeStyle=none;html=1;fontColor=#000000;" parent="1" source="15" target="3" edge="1">
                    <mxGeometry relative="1" as="geometry"/>
                </mxCell>
                <mxCell id="15" value="&lt;b&gt;&lt;font style=&quot;font-size: 13px;&quot;&gt;Business&lt;/font&gt;&lt;/b&gt;" style="text;html=1;align=center;verticalAlign=middle;resizable=0;points=[];autosize=1;strokeColor=none;fillColor=none;fontColor=#000000;rotation=-90;" parent="1" vertex="1">
                    <mxGeometry x="141.5" y="217" width="80" height="30" as="geometry"/>
                </mxCell>
                <mxCell id="16" value="&lt;b&gt;&lt;font style=&quot;font-size: 13px;&quot;&gt;Data&lt;/font&gt;&lt;/b&gt;" style="text;html=1;align=center;verticalAlign=middle;resizable=0;points=[];autosize=1;strokeColor=none;fillColor=none;fontColor=#000000;rotation=-90;" parent="1" vertex="1">
                    <mxGeometry x="156" y="298" width="50" height="30" as="geometry"/>
                </mxCell>
                <mxCell id="17" value="&lt;font color=&quot;#000000&quot;&gt;&lt;b&gt;Business&lt;br&gt;Logic&lt;/b&gt;&lt;br&gt;&lt;/font&gt;" style="rounded=1;whiteSpace=wrap;html=1;strokeColor=#666666;fillColor=#f5f5f5;gradientDirection=north;gradientColor=#b3b3b3;" parent="1" vertex="1">
                    <mxGeometry x="222" y="202.25" width="69" height="59.5" as="geometry"/>
                </mxCell>
                <mxCell id="18" value="&lt;font color=&quot;#000000&quot;&gt;Business&lt;br&gt;Component&lt;br&gt;&lt;/font&gt;" style="rounded=1;whiteSpace=wrap;html=1;strokeColor=#666666;fillColor=#f5f5f5;gradientDirection=north;gradientColor=#b3b3b3;" parent="1" vertex="1">
                    <mxGeometry x="298" y="202.25" width="70" height="59.5" as="geometry"/>
                </mxCell>
                <mxCell id="19" value="&lt;font color=&quot;#000000&quot;&gt;Business&lt;br&gt;Workflows&lt;br&gt;&lt;/font&gt;" style="rounded=1;whiteSpace=wrap;html=1;strokeColor=#666666;fillColor=#f5f5f5;gradientDirection=north;gradientColor=#b3b3b3;" parent="1" vertex="1">
                    <mxGeometry x="374" y="202.25" width="70" height="59.5" as="geometry"/>
                </mxCell>
                <mxCell id="20" value="&lt;font color=&quot;#000000&quot;&gt;&lt;b&gt;Business&lt;br&gt;Entities&lt;/b&gt;&lt;br&gt;&lt;/font&gt;" style="rounded=1;whiteSpace=wrap;html=1;strokeColor=#666666;fillColor=#f5f5f5;gradientDirection=north;gradientColor=#b3b3b3;" parent="1" vertex="1">
                    <mxGeometry x="450" y="202.25" width="70" height="59.5" as="geometry"/>
                </mxCell>
                <mxCell id="22" value="&lt;font color=&quot;#000000&quot;&gt;&lt;b&gt;Data Access Component&lt;br&gt;DAC&lt;/b&gt;&lt;br&gt;&lt;/font&gt;" style="rounded=1;whiteSpace=wrap;html=1;strokeColor=#666666;fillColor=#f5f5f5;gradientDirection=north;gradientColor=#b3b3b3;" parent="1" vertex="1">
                    <mxGeometry x="222" y="283.25" width="84" height="59.5" as="geometry"/>
                </mxCell>
                <mxCell id="23" value="&lt;font color=&quot;#000000&quot;&gt;&lt;b&gt;Data Helper&lt;/b&gt;&lt;br&gt;&lt;/font&gt;" style="rounded=1;whiteSpace=wrap;html=1;strokeColor=#666666;fillColor=#f5f5f5;gradientDirection=north;gradientColor=#b3b3b3;" parent="1" vertex="1">
                    <mxGeometry x="330" y="283.25" width="84" height="59.5" as="geometry"/>
                </mxCell>
                <mxCell id="24" value="&lt;font color=&quot;#000000&quot;&gt;Service Agent&lt;br&gt;&lt;/font&gt;" style="rounded=1;whiteSpace=wrap;html=1;strokeColor=#666666;fillColor=#f5f5f5;gradientDirection=north;gradientColor=#b3b3b3;" parent="1" vertex="1">
                    <mxGeometry x="436" y="283.25" width="84" height="59.5" as="geometry"/>
                </mxCell>
                <mxCell id="25" value="&lt;b&gt;Framework&lt;/b&gt;" style="text;html=1;align=center;verticalAlign=middle;resizable=0;points=[];autosize=1;strokeColor=none;fillColor=none;fontSize=13;fontColor=#000000;" parent="1" vertex="1">
                    <mxGeometry x="572" y="116.5" width="90" height="30" as="geometry"/>
                </mxCell>
                <mxCell id="26" value="&lt;font color=&quot;#000000&quot;&gt;Security&lt;/font&gt;" style="rounded=1;whiteSpace=wrap;html=1;strokeColor=#666666;fillColor=#f5f5f5;gradientDirection=north;gradientColor=#b3b3b3;" parent="1" vertex="1">
                    <mxGeometry x="550" y="157.5" width="134" height="33" as="geometry"/>
                </mxCell>
                <mxCell id="27" value="&lt;font color=&quot;#000000&quot;&gt;Validation&lt;/font&gt;" style="rounded=1;whiteSpace=wrap;html=1;strokeColor=#666666;fillColor=#f5f5f5;gradientDirection=north;gradientColor=#b3b3b3;" parent="1" vertex="1">
                    <mxGeometry x="550" y="207" width="134" height="33" as="geometry"/>
                </mxCell>
                <mxCell id="28" value="&lt;font color=&quot;#000000&quot;&gt;&lt;b&gt;Exception&lt;/b&gt;&lt;/font&gt;" style="rounded=1;whiteSpace=wrap;html=1;strokeColor=#666666;fillColor=#f5f5f5;gradientDirection=north;gradientColor=#b3b3b3;" parent="1" vertex="1">
                    <mxGeometry x="550" y="259" width="134" height="33" as="geometry"/>
                </mxCell>
                <mxCell id="29" value="&lt;font color=&quot;#000000&quot;&gt;Logging&lt;/font&gt;" style="rounded=1;whiteSpace=wrap;html=1;strokeColor=#666666;fillColor=#f5f5f5;gradientDirection=north;gradientColor=#b3b3b3;" parent="1" vertex="1">
                    <mxGeometry x="550" y="312" width="134" height="33" as="geometry"/>
                </mxCell>
                <mxCell id="31" value="&lt;font color=&quot;#000000&quot;&gt;Configuration&lt;/font&gt;" style="rounded=1;whiteSpace=wrap;html=1;strokeColor=#666666;fillColor=#f5f5f5;gradientDirection=north;gradientColor=#b3b3b3;" parent="1" vertex="1">
                    <mxGeometry x="550" y="362" width="134" height="33" as="geometry"/>
                </mxCell>
                <mxCell id="32" value="" style="rounded=1;whiteSpace=wrap;html=1;strokeColor=#B20000;fontSize=13;fillColor=none;gradientDirection=south;fontColor=#ffffff;" parent="1" vertex="1">
                    <mxGeometry x="167" y="358" width="213" height="80" as="geometry"/>
                </mxCell>
                <mxCell id="33" value="" style="rounded=1;whiteSpace=wrap;html=1;strokeColor=#B20000;fontSize=13;fillColor=none;gradientDirection=south;fontColor=#ffffff;" parent="1" vertex="1">
                    <mxGeometry x="390" y="358" width="140" height="80" as="geometry"/>
                </mxCell>
                <mxCell id="34" value="&lt;b&gt;&lt;font style=&quot;font-size: 13px;&quot;&gt;Data&lt;br&gt;Sources&lt;/font&gt;&lt;/b&gt;" style="text;html=1;align=center;verticalAlign=middle;resizable=0;points=[];autosize=1;strokeColor=none;fillColor=none;fontColor=#000000;rotation=-90;" parent="1" vertex="1">
                    <mxGeometry x="151.5" y="378" width="70" height="40" as="geometry"/>
                </mxCell>
                <mxCell id="35" value="&lt;b&gt;&lt;font style=&quot;font-size: 13px;&quot;&gt;Data&lt;br&gt;Service&lt;br&gt;&lt;/font&gt;&lt;/b&gt;" style="text;html=1;align=center;verticalAlign=middle;resizable=0;points=[];autosize=1;strokeColor=none;fillColor=none;fontColor=#000000;rotation=-90;" parent="1" vertex="1">
                    <mxGeometry x="377" y="378" width="70" height="40" as="geometry"/>
                </mxCell>
                <mxCell id="42" value="" style="shape=image;verticalLabelPosition=bottom;labelBackgroundColor=default;verticalAlign=top;aspect=fixed;imageAspect=0;image=https://dc722jrlp2zu8.cloudfront.net/media/django-summernote/2018-03-23/e3372d52-91ff-4e45-90de-79200223e060.jpg;" parent="1" vertex="1">
                    <mxGeometry x="211.3" y="364" width="86.7" height="68" as="geometry"/>
                </mxCell>
                <mxCell id="44" value="" style="shape=image;verticalLabelPosition=bottom;labelBackgroundColor=default;verticalAlign=top;aspect=fixed;imageAspect=0;image=https://cdn-icons-png.flaticon.com/512/603/603190.png;" parent="1" vertex="1">
                    <mxGeometry x="304" y="363" width="70" height="70" as="geometry"/>
                </mxCell>
                <mxCell id="45" value="&lt;b&gt;&lt;font style=&quot;font-size: 16px;&quot;&gt;Arquitectura N-TIER&lt;/font&gt;&lt;/b&gt;" style="text;html=1;align=center;verticalAlign=middle;resizable=0;points=[];autosize=1;strokeColor=none;fillColor=none;fontSize=13;fontColor=#000000;" parent="1" vertex="1">
                    <mxGeometry x="326.5" y="48" width="171" height="31" as="geometry"/>
                </mxCell>
            </root>
        </mxGraphModel>
    </diagram>
</mxfile>